<svg xmlns="http://www.w3.org/2000/svg" viewBox="0 0 342.2 358.4"><defs><style>.cls-1{fill:none;}.cls-2{fill:#605596;}.cls-3{fill:#fff;}</style></defs><title>Asset 82</title><g id="Layer_2" data-name="Layer 2"><g id="Landing_Page" data-name="Landing Page"><circle class="cls-1" cx="173.5" cy="133.2" r="103.6" transform="translate(-43.4 161.7) rotate(-45)"/><path class="cls-2" d="M64.5,229.5,51.8,245a12,12,0,0,0,1.6,16.9l8.5,7a12,12,0,0,0,16.9-1.7l6.2-7.4c-6.6-10.3-13-21-18.9-31.9Z"/><path class="cls-2" d="M280.1,225.5,293,240.8a12,12,0,0,1-1.4,16.9l-8.4,7.1a12,12,0,0,1-16.9-1.4L260,256c6.5-10.4,12.7-21.1,18.4-32.1A12.9,12.9,0,0,1,280.1,225.5Z"/><path class="cls-2" d="M106.9,14.2a66,66,0,1,0-70,111A125.6,125.6,0,0,1,106.9,14.2Z"/><path class="cls-2" d="M234.8,14.7A66,66,0,1,1,305.9,125,125.5,125.5,0,0,0,234.8,14.7Z"/><path class="cls-2" d="M284.4,131.7A112.7,112.7,0,0,0,188.8,20.5,106.6,106.6,0,0,0,171.7,19a115.5,115.5,0,0,0-17.8,1.6A112.3,112.3,0,0,0,97.1,215.8l-9.5,13.4a12.8,12.8,0,0,0,3,17.8,12.8,12.8,0,0,0,17.9-3l9.4-13.4a112.5,112.5,0,0,0,107.6,0L235,244a12.8,12.8,0,0,0,10.4,5.4,12.6,12.6,0,0,0,7.4-2.4,12.7,12.7,0,0,0,3-17.8l-9.4-13.4A112.2,112.2,0,0,0,284.4,131.7ZM171.7,212.8a81.2,81.2,0,0,1-81.1-81.1,79.9,79.9,0,0,1,9.8-38.6,81.3,81.3,0,0,1,58.8-41.5,86.7,86.7,0,0,1,12.5-1.1,75.1,75.1,0,0,1,11.8,1A81.5,81.5,0,0,1,243,92.9a81.1,81.1,0,0,1-71.3,119.9Z"/><path class="cls-2" d="M242.3,159.4l-47-29a22.1,22.1,0,0,0-8.1-13.6l2.2-58.9a13.7,13.7,0,0,0-27.3-1l-2.1,59a22.6,22.6,0,0,0,13,41.2,23.2,23.2,0,0,0,9.9-2.3L228,182.6a13.2,13.2,0,0,0,7.1,2,13.6,13.6,0,0,0,7.2-25.2Z"/><path class="cls-3" d="M171.4,3.6A128.6,128.6,0,0,0,42.9,132.1c0,28.5,12,61.3,28.5,92.8,5.7,11,12,21.7,18.4,32.1,32.5,52.2,70.2,94.5,73,97.6a11.6,11.6,0,0,0,17.2,0c4.9-5.4,119.9-134.6,119.9-222.5A128.6,128.6,0,0,0,171.4,3.6Zm2.1,233.2A103.6,103.6,0,1,1,277.1,133.2,103.6,103.6,0,0,1,173.5,236.8Z"/></g></g></svg>